<svg width="200" height="200" viewBox="0 0 200 200" xmlns="http://www.w3.org/2000/svg">
  <defs>
    <!-- Gradient for the leaf -->
    <linearGradient id="leafGradient" x1="0%" y1="0%" x2="100%" y2="100%">
      <stop offset="0%" style="stop-color:#00A973;stop-opacity:1" />
      <stop offset="50%" style="stop-color:#00C982;stop-opacity:1" />
      <stop offset="100%" style="stop-color:#00A973;stop-opacity:1" />
    </linearGradient>
    
    <!-- Shadow gradient -->
    <linearGradient id="shadowGradient" x1="0%" y1="0%" x2="100%" y2="100%">
      <stop offset="0%" style="stop-color:#000000;stop-opacity:0.1" />
      <stop offset="100%" style="stop-color:#000000;stop-opacity:0.3" />
    </linearGradient>
    
    <!-- Highlight gradient -->
    <linearGradient id="highlightGradient" x1="0%" y1="0%" x2="100%" y2="0%">
      <stop offset="0%" style="stop-color:#FFFFFF;stop-opacity:0.3" />
      <stop offset="50%" style="stop-color:#FFFFFF;stop-opacity:0.1" />
      <stop offset="100%" style="stop-color:#FFFFFF;stop-opacity:0" />
    </linearGradient>
  </defs>
  
  <!-- Shadow -->
  <ellipse cx="102" cy="152" rx="45" ry="8" fill="url(#shadowGradient)" opacity="0.3"/>
  
  <!-- Main leaf shape -->
  <path d="M100 20 
           C60 30, 40 60, 45 100
           C50 140, 80 160, 100 180
           C120 160, 150 140, 155 100
           C160 60, 140 30, 100 20 Z" 
        fill="url(#leafGradient)" 
        stroke="#00A973" 
        stroke-width="1"/>
  
  <!-- Leaf veins -->
  <path d="M100 20 L100 180" stroke="#00A973" stroke-width="2" opacity="0.6"/>
  <path d="M100 20 L80 100" stroke="#00A973" stroke-width="1.5" opacity="0.4"/>
  <path d="M100 20 L120 100" stroke="#00A973" stroke-width="1.5" opacity="0.4"/>
  <path d="M100 20 L70 140" stroke="#00A973" stroke-width="1" opacity="0.3"/>
  <path d="M100 20 L130 140" stroke="#00A973" stroke-width="1" opacity="0.3"/>
  
  <!-- Highlight -->
  <path d="M100 20 
           C80 25, 70 40, 75 80
           C80 120, 95 140, 100 160
           C105 140, 120 120, 125 80
           C130 40, 120 25, 100 20 Z" 
        fill="url(#highlightGradient)"/>
  
  <!-- Center stem -->
  <ellipse cx="100" cy="100" rx="2" ry="80" fill="#00A973" opacity="0.8"/>
</svg>






